<?xml version="1.0" standalone="no"?>
<!DOCTYPE svg PUBLIC "-//W3C//DTD SVG 20010904//EN"
 "http://www.w3.org/TR/2001/REC-SVG-20010904/DTD/svg10.dtd">
<svg version="1.0" xmlns="http://www.w3.org/2000/svg"
 width="260.000000pt" height="260.000000pt" viewBox="0 0 260.000000 260.000000"
 preserveAspectRatio="xMidYMid meet">
<metadata>
Created by potrace 1.11, written by Peter Selinger 2001-2013
</metadata>
<g transform="translate(0.000000,260.000000) scale(0.100000,-0.100000)"
fill="#000000" stroke="none">
<path d="M1157 2215 c-161 -31 -271 -105 -330 -224 -29 -59 -32 -74 -32 -156
0 -78 4 -97 28 -147 57 -117 157 -172 448 -248 106 -28 216 -61 243 -74 142
-65 192 -181 130 -305 -46 -92 -147 -140 -314 -148 -175 -9 -307 26 -446 117
l-72 46 -27 -55 -27 -56 38 -33 c55 -47 164 -98 269 -124 117 -29 326 -31 425
-5 147 39 239 108 292 215 30 60 33 75 33 152 -1 97 -24 161 -78 219 -71 75
-156 111 -407 176 -289 74 -377 133 -388 260 -9 108 55 199 174 246 52 20 76
23 199 23 127 0 147 -2 220 -27 44 -16 99 -39 122 -53 23 -13 44 -24 47 -24 5
0 56 105 56 115 0 10 -161 79 -226 96 -105 27 -274 33 -377 14z"/>
</g>
</svg>
